<svg width="744" height="176" version="1.1" xmlns="http://www.w3.org/2000/svg" desc="Created with imagetracer.js version 1.2.6" ><path fill="rgb(254,254,254)" stroke="rgb(254,254,254)" stroke-width="1" opacity="1" d="M 39.5 39 L 40 145.5 L 39 145.5 L 39.5 39 Z " /><path fill="rgb(254,254,254)" stroke="rgb(254,254,254)" stroke-width="1" opacity="1" d="M 437.5 45 L 439.5 48 L 437.5 45 Z " /><path fill="rgb(254,254,254)" stroke="rgb(254,254,254)" stroke-width="1" opacity="1" d="M 470.5 45 L 488 45.5 L 470.5 46 L 470.5 45 Z " /><path fill="rgb(254,254,254)" stroke="rgb(254,254,254)" stroke-width="1" opacity="1" d="M 374.5 51 L 373.5 53 L 374.5 51 Z " /><path fill="rgb(254,254,254)" stroke="rgb(254,254,254)" stroke-width="1" opacity="1" d="M 59.5 57 L 60 82.5 L 59 82.5 L 59.5 57 Z " /><path fill="rgb(254,254,254)" stroke="rgb(254,254,254)" stroke-width="1" opacity="1" d="M 393.5 57 L 391.5 60 L 393.5 57 Z " /><path fill="rgb(254,254,254)" stroke="rgb(254,254,254)" stroke-width="1" opacity="1" d="M 681.5 66 L 684 66.5 L 681.5 67 L 681.5 66 Z " /><path fill="rgb(254,254,254)" stroke="rgb(254,254,254)" stroke-width="1" opacity="1" d="M 687.5 66 L 690 66.5 L 687.5 67 L 687.5 66 Z " /><path fill="rgb(254,254,254)" stroke="rgb(254,254,254)" stroke-width="1" opacity="1" d="M 458.5 68 L 470 68.5 L 458.5 69 L 458.5 68 Z " /><path fill="rgb(254,254,254)" stroke="rgb(254,254,254)" stroke-width="1" opacity="1" d="M 488.5 68 L 504 68.5 L 488.5 69 L 488.5 68 Z " /><path fill="rgb(254,254,254)" stroke="rgb(254,254,254)" stroke-width="1" opacity="1" d="M 603.5 68 L 619 68.5 L 603.5 69 L 603.5 68 Z " /><path fill="rgb(254,254,254)" stroke="rgb(254,254,254)" stroke-width="1" opacity="1" d="M 276.5 70 L 272.5 75 L 276.5 70 Z " /><path fill="rgb(254,254,254)" stroke="rgb(254,254,254)" stroke-width="1" opacity="1" d="M 625.5 72 L 623.5 75 L 625.5 72 Z " /><path fill="rgb(254,254,254)" stroke="rgb(254,254,254)" stroke-width="1" opacity="1" d="M 391.5 73 L 392.5 75 L 391.5 73 Z " /><path fill="rgb(254,254,254)" stroke="rgb(254,254,254)" stroke-width="1" opacity="1" d="M 131.5 74 L 130.5 76 L 131.5 74 Z " /><path fill="rgb(254,254,254)" stroke="rgb(254,254,254)" stroke-width="1" opacity="1" d="M 575.5 74 L 577.5 77 L 575.5 74 Z " /><path fill="rgb(254,254,254)" stroke="rgb(254,254,254)" stroke-width="1" opacity="1" d="M 522.5 76 L 520.5 79 L 522.5 76 Z " /><path fill="rgb(254,254,254)" stroke="rgb(254,254,254)" stroke-width="1" opacity="1" d="M 712.5 78 L 714.5 81 L 712.5 78 Z " /><path fill="rgb(254,254,254)" stroke="rgb(254,254,254)" stroke-width="1" opacity="1" d="M 458.5 82 L 470 82.5 L 458.5 83 L 458.5 82 Z " /><path fill="rgb(254,254,254)" stroke="rgb(254,254,254)" stroke-width="1" opacity="1" d="M 488.5 82 L 504 82.5 L 488.5 83 L 488.5 82 Z " /><path fill="rgb(254,254,254)" stroke="rgb(254,254,254)" stroke-width="1" opacity="1" d="M 674.5 84 L 670.5 89 L 674.5 84 Z " /><path fill="rgb(254,254,254)" stroke="rgb(254,254,254)" stroke-width="1" opacity="1" d="M 374.5 85 L 377.5 89 L 374.5 85 Z " /><path fill="rgb(254,254,254)" stroke="rgb(254,254,254)" stroke-width="1" opacity="1" d="M 237.5 86 L 226.5 98 L 237.5 86 Z " /><path fill="rgb(254,254,254)" stroke="rgb(254,254,254)" stroke-width="1" opacity="1" d="M 629.5 87 L 626.5 91 L 629.5 87 Z " /><path fill="rgb(254,254,254)" stroke="rgb(254,254,254)" stroke-width="1" opacity="1" d="M 699.5 88 L 700.5 90 L 699.5 88 Z " /><path fill="rgb(254,254,254)" stroke="rgb(254,254,254)" stroke-width="1" opacity="1" d="M 440.5 91 L 441.5 93 L 440.5 91 Z " /><path fill="rgb(254,254,254)" stroke="rgb(254,254,254)" stroke-width="1" opacity="1" d="M 253.5 92 L 248.5 98 L 253.5 92 Z " /><path fill="rgb(254,254,254)" stroke="rgb(254,254,254)" stroke-width="1" opacity="1" d="M 60.5 99 L 63 99.5 L 60 100 L 59.5 146 L 59 100.5 L 60.5 99 Z " /><path fill="rgb(254,254,254)" stroke="rgb(254,254,254)" stroke-width="1" opacity="1" d="M 65.5 99 L 68 99.5 L 65.5 100 L 65.5 99 Z " /><path fill="rgb(254,254,254)" stroke="rgb(254,254,254)" stroke-width="1" opacity="1" d="M 69.5 99 L 74 99.5 L 69.5 100 L 69.5 99 Z " /><path fill="rgb(254,254,254)" stroke="rgb(254,254,254)" stroke-width="1" opacity="1" d="M 75.5 99 L 84 99.5 L 75.5 100 L 75.5 99 Z " /><path fill="rgb(254,254,254)" stroke="rgb(254,254,254)" stroke-width="1" opacity="1" d="M 86.5 99 L 89 99.5 L 86.5 100 L 86.5 99 Z " /><path fill="rgb(254,254,254)" stroke="rgb(254,254,254)" stroke-width="1" opacity="1" d="M 90.5 99 L 95 99.5 L 90.5 100 L 90.5 99 Z " /><path fill="rgb(254,254,254)" stroke="rgb(254,254,254)" stroke-width="1" opacity="1" d="M 97.5 99 L 100 99.5 L 97.5 100 L 97.5 99 Z " /><path fill="rgb(254,254,254)" stroke="rgb(254,254,254)" stroke-width="1" opacity="1" d="M 101.5 99 L 107 99.5 L 101.5 100 L 101.5 99 Z " /><path fill="rgb(254,254,254)" stroke="rgb(254,254,254)" stroke-width="1" opacity="1" d="M 427.5 106 L 428.5 108 L 427.5 106 Z " /><path fill="rgb(254,254,254)" stroke="rgb(254,254,254)" stroke-width="1" opacity="1" d="M 589.5 106 L 590 108.5 L 589 108.5 L 589.5 106 Z " /><path fill="rgb(254,254,254)" stroke="rgb(254,254,254)" stroke-width="1" opacity="1" d="M 128.5 107 L 127.5 109 L 128.5 107 Z " /><path fill="rgb(254,254,254)" stroke="rgb(254,254,254)" stroke-width="1" opacity="1" d="M 722.5 107 L 723 111.5 L 721.5 113 L 666.5 113 L 666.5 112 L 721.5 112 L 722.5 107 Z " /><path fill="rgb(254,254,254)" stroke="rgb(254,254,254)" stroke-width="1" opacity="1" d="M 620.5 108 L 621 144.5 L 620 144.5 L 620.5 108 Z " /><path fill="rgb(254,254,254)" stroke="rgb(254,254,254)" stroke-width="1" opacity="1" d="M 230.5 114 L 226.5 119 L 230.5 114 Z " /><path fill="rgb(254,254,254)" stroke="rgb(254,254,254)" stroke-width="1" opacity="1" d="M 488.5 123 L 489 126.5 L 488 126.5 L 488.5 123 Z " /><path fill="rgb(254,254,254)" stroke="rgb(254,254,254)" stroke-width="1" opacity="1" d="M 430.5 124 L 429.5 126 L 430.5 124 Z " /><path fill="rgb(254,254,254)" stroke="rgb(254,254,254)" stroke-width="1" opacity="1" d="M 336.5 126 L 332.5 131 L 336.5 126 Z " /><path fill="rgb(254,254,254)" stroke="rgb(254,254,254)" stroke-width="1" opacity="1" d="M 701.5 126 L 697.5 131 L 701.5 126 Z " /><path fill="rgb(254,254,254)" stroke="rgb(254,254,254)" stroke-width="1" opacity="1" d="M 671.5 127 L 673.5 130 L 671.5 127 Z " /><path fill="rgb(254,254,254)" stroke="rgb(254,254,254)" stroke-width="1" opacity="1" d="M 140.5 128 L 142.5 131 L 140.5 128 Z " /><path fill="rgb(254,254,254)" stroke="rgb(254,254,254)" stroke-width="1" opacity="1" d="M 538.5 129 L 539.5 131 L 538.5 129 Z " /><path fill="rgb(254,254,254)" stroke="rgb(254,254,254)" stroke-width="1" opacity="1" d="M 583.5 131 L 582.5 133 L 583.5 131 Z " /><path fill="rgb(254,254,254)" stroke="rgb(254,254,254)" stroke-width="1" opacity="1" d="M 517.5 132 L 518.5 134 L 517.5 132 Z " /><path fill="rgb(254,254,254)" stroke="rgb(254,254,254)" stroke-width="1" opacity="1" d="M 350.5 135 L 349.5 137 L 350.5 135 Z " /><path fill="rgb(254,254,254)" stroke="rgb(254,254,254)" stroke-width="1" opacity="1" d="M 580.5 135 L 576.5 140 L 580.5 135 Z " /><path fill="rgb(254,254,254)" stroke="rgb(254,254,254)" stroke-width="1" opacity="1" d="M 520.5 136 L 521.5 138 L 520.5 136 Z " /><path fill="rgb(254,254,254)" stroke="rgb(254,254,254)" stroke-width="1" opacity="1" d="M 443.5 137 L 441.5 140 L 443.5 137 Z " /><path fill="rgb(254,254,254)" stroke="rgb(254,254,254)" stroke-width="1" opacity="1" d="M 713.5 137 L 711.5 140 L 713.5 137 Z " /><path fill="rgb(254,254,254)" stroke="rgb(254,254,254)" stroke-width="1" opacity="1" d="M 295.5 139 L 297.5 142 L 295.5 139 Z " /><path fill="rgb(254,254,254)" stroke="rgb(254,254,254)" stroke-width="1" opacity="1" d="M 660.5 139 L 662.5 142 L 660.5 139 Z " /><path fill="rgb(254,254,254)" stroke="rgb(254,254,254)" stroke-width="1" opacity="1" d="M 345.5 140 L 344.5 142 L 345.5 140 Z " /><path fill="rgb(254,254,254)" stroke="rgb(254,254,254)" stroke-width="1" opacity="1" d="M 146.5 148 L 149 148.5 L 146.5 149 L 146.5 148 Z " /><path fill="rgb(254,254,254)" stroke="rgb(254,254,254)" stroke-width="1" opacity="1" d="M 186.5 148 L 189 148.5 L 186.5 149 L 186.5 148 Z " /><path fill="rgb(254,254,254)" stroke="rgb(254,254,254)" stroke-width="1" opacity="1" d="M 320.5 148 L 323 148.5 L 320.5 149 L 320.5 148 Z " /><path fill="rgb(254,254,254)" stroke="rgb(254,254,254)" stroke-width="1" opacity="1" d="M 401.5 148 L 404 148.5 L 401.5 149 L 401.5 148 Z " /><path fill="rgb(254,254,254)" stroke="rgb(254,254,254)" stroke-width="1" opacity="1" d="M 416.5 148 L 419 148.5 L 416.5 149 L 416.5 148 Z " /><path fill="rgb(255,255,255)" stroke="rgb(255,255,255)" stroke-width="1" opacity="1" d="M 0 0 L 743.5 0 L 744 0.5 L 744 176 L 0.5 176 L 0 175.5 L 0 0 Z M 400 37 L 389 40 L 376 48 L 370 59 L 369 64 L 369 74 L 374 86 L 386 94 L 417 102 L 430 108 L 433 117 Q 432 123 429 127 L 418 132 Q 401 134 393 127 L 387 121 L 385 114 L 385 110 L 365 110 Q 365 125 372 134 L 383 143 L 402 149 Q 428 151 442 140 Q 451 133 453 120 Q 454 106 448 99 Q 443 91 435 88 L 407 81 L 395 76 L 389 69 L 390 62 L 398 55 L 408 53 L 416 54 L 423 57 L 427 62 L 430 71 L 431 72 L 450 72 Q 450 59 444 52 Q 432 34 400 37 Z M 39 39 L 39 146 L 60 146 L 60 100 L 107 100 L 107 83 L 60 83 L 60 57 L 114 57 L 114 40 L 114 39 L 39 39 Z M 208 39 L 208 146 L 226 146 L 226 120 L 236 111 L 257 145 L 258 146 L 280 146 L 249 98 L 277 71 L 277 68 L 256 68 L 226 97 L 226 40 L 226 39 L 208 39 Z M 470 45 L 470 68 L 459 68 L 457 70 L 457 82 L 459 83 L 470 83 L 470 133 L 474 143 L 484 147 L 502 147 L 503 146 L 504 146 L 504 132 L 493 132 L 490 131 L 488 123 L 488 83 L 504 83 L 504 68 L 488 68 L 488 45 L 470 45 Z M 155 66 L 140 69 L 132 74 Q 126 79 124 87 L 124 93 L 142 93 L 145 85 L 157 81 L 162 81 L 169 83 Q 174 85 173 94 Q 170 98 165 99 L 141 102 L 129 107 Q 123 111 121 119 Q 119 133 125 140 L 136 147 L 147 149 L 158 148 L 165 146 L 174 140 L 175 144 L 181 148 Q 185 147 187 149 L 196 147 L 199 147 L 199 133 L 194 134 L 191 132 L 191 89 Q 189 87 190 83 L 186 76 Q 180 69 171 67 L 155 66 Z M 317 66 L 308 68 L 299 73 L 289 84 L 285 93 L 283 102 L 283 115 L 285 125 L 291 136 Q 296 142 305 146 L 321 149 L 335 147 L 345 142 Q 354 135 357 123 L 357 121 L 340 121 L 337 126 L 332 131 L 322 134 L 313 132 L 310 130 Q 302 125 302 113 L 357 113 L 358 112 L 357 95 L 351 82 Q 344 73 334 68 L 325 66 L 317 66 Z M 548 66 L 534 69 L 523 76 Q 514 84 511 99 L 511 117 L 513 125 L 520 137 L 534 146 L 550 149 L 567 146 L 577 140 L 585 130 L 589 118 L 589 110 L 590 109 L 588 94 L 581 80 Q 571 66 548 66 Z M 640 66 L 635 67 L 626 72 L 620 80 L 619 68 L 604 68 L 602 70 L 602 146 L 603 146 L 620 146 L 621 145 L 621 102 L 625 93 Q 629 86 637 84 L 646 84 L 647 85 L 648 85 L 648 67 Q 646 65 640 66 Z M 682 66 L 673 68 L 664 73 Q 652 82 648 100 L 648 117 L 652 130 L 656 136 Q 661 142 670 146 L 686 149 L 700 147 L 712 140 Q 718 134 721 125 L 721 121 L 705 121 L 702 126 L 697 131 L 687 134 L 676 131 L 670 126 L 667 120 L 666 113 L 722 113 L 723 112 L 722 96 L 715 81 Q 709 72 699 68 L 690 66 L 682 66 Z " /><path fill="rgb(255,255,255)" stroke="rgb(255,255,255)" stroke-width="1" opacity="1" d="M 318.5 81 L 326.5 82 L 335 88.5 L 339 100 L 302.5 100 Q 301.5 100 302 95.5 Q 304.6 88.1 310.5 84 L 318.5 81 Z " /><path fill="rgb(255,255,255)" stroke="rgb(255,255,255)" stroke-width="1" opacity="1" d="M 548.5 81 Q 561.5 81 566 89.5 L 570 97.5 L 571 112.5 L 566 125.5 L 561.5 130 L 558.5 132 L 549.5 134 L 541.5 132 L 535 126.5 Q 528.2 118.8 529 103.5 L 534 89.5 L 538.5 85 L 548.5 81 Z " /><path fill="rgb(255,255,255)" stroke="rgb(255,255,255)" stroke-width="1" opacity="1" d="M 683.5 81 Q 694.7 80.8 699 87.5 Q 703.5 92.4 704 100 L 666 99.5 Q 667.6 88.6 675.5 84 L 683.5 81 Z " /><path fill="rgb(255,255,255)" stroke="rgb(255,255,255)" stroke-width="1" opacity="1" d="M 171.5 109 L 172 122.5 L 166.5 130 L 160.5 133 L 153.5 134 L 144.5 132 L 140 127.5 L 139 122.5 L 143.5 116 L 150.5 113 L 167.5 111 L 171.5 109 Z " /><path fill="rgb(146,146,146)" stroke="rgb(146,146,146)" stroke-width="1" opacity="1" d="M 406.5 37 L 419.5 38 L 429.5 41 Q 437.9 44.6 443 51.5 Q 449.6 58.2 449 71 L 430.5 71 Q 429.5 71 430 66.5 L 423.5 57 Q 416.5 51 401.5 53 Q 393.4 54.4 390 60.5 Q 387.7 63.7 389 70.5 L 394.5 77 L 400.5 80 L 435.5 89 L 448 99.5 L 452 109.5 L 452 121.5 Q 449.3 132.8 441.5 139 L 425.5 147 Q 420.8 145.8 419.5 148 L 399.5 148 Q 381.1 144.9 372 132.5 Q 365.2 124.5 366 110 L 383.5 110 L 385 111.5 Q 384.9 123.6 392.5 128 L 400.5 132 L 416.5 133 Q 425.1 131.6 430 126.5 Q 434.3 122.3 433 112.5 L 431 108 L 424.5 104 L 415.5 101 L 387.5 94 L 375 85.5 Q 367.7 78.3 370 61.5 Q 373.4 49.9 382.5 44 L 393.5 39 L 405.5 38 L 406.5 37 Z " /><path fill="rgb(146,146,146)" stroke="rgb(146,146,146)" stroke-width="1" opacity="1" d="M 40.5 39 L 112.5 39 L 114 40.5 L 114 55.5 L 112.5 57 L 105 56.5 L 113 56 L 113 40.5 L 112.5 40 L 40.5 40 L 40.5 39 Z " /><path fill="rgb(146,146,146)" stroke="rgb(146,146,146)" stroke-width="1" opacity="1" d="M 209.5 39 L 224.5 39 L 226 40.5 L 225.5 99 L 225 40 L 209.5 40 L 209.5 39 Z " /><path fill="rgb(146,146,146)" stroke="rgb(146,146,146)" stroke-width="1" opacity="1" d="M 471 46 L 488 46 L 488 69 L 503 69 L 503 82 L 488.5 82 L 488 82.5 L 488 127.5 L 490.5 132 Q 494 134.5 501.5 133 L 503 132.5 L 503 146 L 494.5 146 L 490.5 147 L 479.5 145 L 473 139.5 L 471 134.5 L 471 82 L 458 82 L 458 69 L 471 69 L 471 46 Z " /><path fill="rgb(146,146,146)" stroke="rgb(146,146,146)" stroke-width="1" opacity="1" d="M 61.5 56 L 64 56.5 L 61.5 57 L 61.5 56 Z " /><path fill="rgb(146,146,146)" stroke="rgb(146,146,146)" stroke-width="1" opacity="1" d="M 65.5 56 L 72 56.5 L 65.5 57 L 65.5 56 Z " /><path fill="rgb(146,146,146)" stroke="rgb(146,146,146)" stroke-width="1" opacity="1" d="M 73.5 56 L 83 56.5 L 73.5 57 L 73.5 56 Z " /><path fill="rgb(146,146,146)" stroke="rgb(146,146,146)" stroke-width="1" opacity="1" d="M 84.5 56 L 90 56.5 L 84.5 57 L 84.5 56 Z " /><path fill="rgb(146,146,146)" stroke="rgb(146,146,146)" stroke-width="1" opacity="1" d="M 93.5 56 L 96 56.5 L 93.5 57 L 93.5 56 Z " /><path fill="rgb(146,146,146)" stroke="rgb(146,146,146)" stroke-width="1" opacity="1" d="M 97.5 56 L 104 56.5 L 97.5 57 L 97.5 56 Z " /><path fill="rgb(146,146,146)" stroke="rgb(146,146,146)" stroke-width="1" opacity="1" d="M 148.5 67 L 151 67.5 L 148.5 68 L 148.5 67 Z " /><path fill="rgb(146,146,146)" stroke="rgb(146,146,146)" stroke-width="1" opacity="1" d="M 327.5 67 L 330 67.5 L 327.5 68 L 327.5 67 Z " /><path fill="rgb(146,146,146)" stroke="rgb(146,146,146)" stroke-width="1" opacity="1" d="M 543.5 67 Q 570.6 65.4 581 80.5 Q 589.8 91.7 589 112.5 L 586 125.5 Q 582.8 133.8 576.5 139 Q 566.5 149 545.5 148 L 533.5 145 L 521 136.5 L 513 121.5 L 511 105.5 Q 513.8 103.8 512 97.5 L 516 85.5 L 523.5 76 Q 531.1 69.1 543.5 67 Z M 545 81 L 539 84 Q 531 89 529 100 Q 527 119 535 128 L 546 134 Q 557 136 562 131 L 567 126 L 571 117 Q 570 112 572 111 L 571 99 L 567 90 L 559 82 Q 553 80 545 81 Z " /><path fill="rgb(146,146,146)" stroke="rgb(146,146,146)" stroke-width="1" opacity="1" d="M 637.5 67 L 648 67 L 648 84 L 638.5 83 Q 628.5 85 624 92.5 L 620 103.5 L 620 146 L 603.5 146 L 603 145.5 L 603 69 L 619 69 L 619 81.5 L 620 81.5 L 625.5 73 L 637.5 67 Z " /><path fill="rgb(146,146,146)" stroke="rgb(146,146,146)" stroke-width="1" opacity="1" d="M 679.5 67 L 696.5 68 Q 707.5 72 714 80.5 L 721 94.5 L 722 112 L 666.5 112 Q 665.4 112.1 666 117.5 Q 667.8 126.8 674.5 131 Q 679.7 135.8 691.5 134 Q 699.4 131.9 703 125.5 L 704 122 L 721 122.5 Q 718.5 133 711.5 139 Q 702.1 149.1 681.5 148 L 665.5 143 L 656 134.5 L 650 121.5 L 648 107.5 L 649 106.5 L 649 98.5 L 653 86.5 L 664.5 73 Q 670.5 68.5 679.5 67 Z M 681 81 L 676 83 Q 668 87 666 97 Q 665 101 667 101 L 704 101 Q 705 92 700 88 L 691 81 L 681 81 Z " /><path fill="rgb(146,146,146)" stroke="rgb(146,146,146)" stroke-width="1" opacity="1" d="M 337.5 70 L 338.5 72 L 337.5 70 Z " /><path fill="rgb(146,146,146)" stroke="rgb(146,146,146)" stroke-width="1" opacity="1" d="M 181.5 72 L 182.5 74 L 181.5 72 Z " /><path fill="rgb(146,146,146)" stroke="rgb(146,146,146)" stroke-width="1" opacity="1" d="M 340.5 72 L 341.5 74 L 340.5 72 Z " /><path fill="rgb(146,146,146)" stroke="rgb(146,146,146)" stroke-width="1" opacity="1" d="M 133.5 73 L 132.5 75 L 133.5 73 Z " /><path fill="rgb(146,146,146)" stroke="rgb(146,146,146)" stroke-width="1" opacity="1" d="M 272.5 73 L 263.5 83 L 272.5 73 Z " /><path fill="rgb(146,146,146)" stroke="rgb(146,146,146)" stroke-width="1" opacity="1" d="M 343.5 74 L 347.5 79 L 343.5 74 Z " /><path fill="rgb(146,146,146)" stroke="rgb(146,146,146)" stroke-width="1" opacity="1" d="M 130.5 76 L 129.5 78 L 130.5 76 Z " /><path fill="rgb(146,146,146)" stroke="rgb(146,146,146)" stroke-width="1" opacity="1" d="M 185.5 76 L 186.5 78 L 185.5 76 Z " /><path fill="rgb(146,146,146)" stroke="rgb(146,146,146)" stroke-width="1" opacity="1" d="M 60.5 83 L 107 83.5 L 60.5 84 L 60.5 83 Z " /><path fill="rgb(146,146,146)" stroke="rgb(146,146,146)" stroke-width="1" opacity="1" d="M 331.5 84 L 332.5 86 L 331.5 84 Z " /><path fill="rgb(146,146,146)" stroke="rgb(146,146,146)" stroke-width="1" opacity="1" d="M 334.5 87 L 335.5 89 L 334.5 87 Z " /><path fill="rgb(146,146,146)" stroke="rgb(146,146,146)" stroke-width="1" opacity="1" d="M 305.5 88 L 304.5 90 L 305.5 88 Z " /><path fill="rgb(146,146,146)" stroke="rgb(146,146,146)" stroke-width="1" opacity="1" d="M 173.5 89 L 174 91.5 L 173 91.5 L 173.5 89 Z " /><path fill="rgb(146,146,146)" stroke="rgb(146,146,146)" stroke-width="1" opacity="1" d="M 339.5 98 L 340 99.5 L 338.5 101 L 301.5 101 L 301.5 100 L 338.5 100 L 339.5 98 Z " /><path fill="rgb(146,146,146)" stroke="rgb(146,146,146)" stroke-width="1" opacity="1" d="M 357.5 102 L 358 109.5 L 357 109.5 L 357.5 102 Z " /><path fill="rgb(146,146,146)" stroke="rgb(146,146,146)" stroke-width="1" opacity="1" d="M 283.5 104 L 284 110.5 L 283 110.5 L 283.5 104 Z " /><path fill="rgb(146,146,146)" stroke="rgb(146,146,146)" stroke-width="1" opacity="1" d="M 171.5 108 L 173 108.5 L 173 121.5 L 172 121.5 L 172 109.5 L 171.5 108 Z " /><path fill="rgb(146,146,146)" stroke="rgb(146,146,146)" stroke-width="1" opacity="1" d="M 125.5 111 L 124.5 113 L 125.5 111 Z " /><path fill="rgb(146,146,146)" stroke="rgb(146,146,146)" stroke-width="1" opacity="1" d="M 225.5 119 L 226 145.5 L 225 145.5 L 225.5 119 Z " /><path fill="rgb(146,146,146)" stroke="rgb(146,146,146)" stroke-width="1" opacity="1" d="M 121.5 120 L 122 123.5 L 121 123.5 L 121.5 120 Z " /><path fill="rgb(146,146,146)" stroke="rgb(146,146,146)" stroke-width="1" opacity="1" d="M 339.5 121 L 356 121.5 L 339.5 122 L 339.5 121 Z " /><path fill="rgb(146,146,146)" stroke="rgb(146,146,146)" stroke-width="1" opacity="1" d="M 170.5 126 L 169.5 128 L 170.5 126 Z " /><path fill="rgb(146,146,146)" stroke="rgb(146,146,146)" stroke-width="1" opacity="1" d="M 121.5 127 L 122 130.5 L 121 130.5 L 121.5 127 Z " /><path fill="rgb(146,146,146)" stroke="rgb(146,146,146)" stroke-width="1" opacity="1" d="M 167.5 129 L 166.5 131 L 167.5 129 Z " /><path fill="rgb(146,146,146)" stroke="rgb(146,146,146)" stroke-width="1" opacity="1" d="M 157.5 133 L 160 133.5 L 157.5 134 L 157.5 133 Z " /><path fill="rgb(146,146,146)" stroke="rgb(146,146,146)" stroke-width="1" opacity="1" d="M 351.5 133 L 350.5 135 L 351.5 133 Z " /><path fill="rgb(146,146,146)" stroke="rgb(146,146,146)" stroke-width="1" opacity="1" d="M 173.5 139 L 174.5 141 L 172 140.5 L 173.5 139 Z " /><path fill="rgb(146,146,146)" stroke="rgb(146,146,146)" stroke-width="1" opacity="1" d="M 297.5 140 L 298.5 142 L 297.5 140 Z " /><path fill="rgb(146,146,146)" stroke="rgb(146,146,146)" stroke-width="1" opacity="1" d="M 153.5 147 L 156 147.5 L 153.5 148 L 153.5 147 Z " /><path fill="rgb(146,146,146)" stroke="rgb(146,146,146)" stroke-width="1" opacity="1" d="M 312.5 147 L 316 147.5 L 312.5 148 L 312.5 147 Z " /><path fill="rgb(0,0,0)" stroke="rgb(0,0,0)" stroke-width="1" opacity="1" d="M 40 40 L 112.5 40 L 113 40.5 L 113 56 L 59 56 L 59 84 L 105.5 84 L 106 84.5 L 106 99 L 59 99 L 59 146 L 40 146 L 40 40 Z " /><path fill="rgb(0,0,0)" stroke="rgb(0,0,0)" stroke-width="1" opacity="1" d="M 209 40 L 224.5 40 L 225 40.5 L 225 98.5 L 226.5 99 L 256.5 69 L 275.5 69 L 260.5 85 L 248 96.5 L 249 100.5 L 279 146 L 259.5 146 L 257 143.5 L 235.5 109 L 225 118.5 L 225 146 L 209 146 L 209 40 Z " /><path fill="rgb(0,0,0)" stroke="rgb(0,0,0)" stroke-width="1" opacity="1" d="M 153.5 67 L 164.5 67 L 176.5 70 L 187 78.5 L 190 88.5 L 190 132.5 L 191.5 134 L 195.5 135 L 198 134 L 198 145.5 L 195.5 146 L 188.5 148 L 185.5 147 Q 177.4 147.1 175 141.5 Q 176.1 138.2 173.5 139 L 161.5 146 L 145.5 148 L 133.5 145 L 125 137.5 Q 119.8 131.7 122 118.5 Q 124.1 110.6 130.5 107 L 140.5 103 L 168.5 99 L 173 95.5 L 174 88.5 L 170.5 83 Q 165.1 79.9 156.5 80 L 148.5 82 L 143 86.5 L 140.5 92 L 125 92 L 125 86.5 Q 127.8 77.8 134.5 73 L 142.5 69 L 153.5 67 Z M 172 108 L 168 110 L 151 112 L 143 115 L 138 123 L 139 129 L 145 133 L 154 135 L 166 132 Q 171 129 173 123 L 173 109 L 172 108 Z " /><path fill="rgb(0,0,0)" stroke="rgb(0,0,0)" stroke-width="1" opacity="1" d="M 316.5 67 L 325.5 67 L 333.5 69 Q 342.9 73.1 349 80.5 L 356 94.5 L 357 112 L 301.5 112 Q 300.3 112.3 301 118.5 Q 303.4 127.5 310.5 132 Q 316.3 135.7 327.5 134 Q 334.7 132.2 338 126.5 L 340.5 122 L 356 122.5 Q 352.3 135.3 342.5 142 L 334.5 146 L 322.5 148 L 320.5 148 L 305.5 145 Q 296.1 141.4 291 133.5 L 287 126.5 L 284 115.5 L 284 100.5 L 289 85.5 L 300.5 73 L 305.5 70 L 316.5 67 Z M 320 80 L 315 81 L 308 85 L 301 96 Q 300 101 302 101 L 340 101 Q 340 94 337 90 Q 332 81 320 80 Z " /><path fill="rgb(34,34,34)" stroke="rgb(34,34,34)" stroke-width="1" opacity="1" d="M 208.5 40 L 209 145.5 L 208 145.5 L 208.5 40 Z " /><path fill="rgb(34,34,34)" stroke="rgb(34,34,34)" stroke-width="1" opacity="1" d="M 255.5 69 L 226.5 99 L 255.5 69 Z " /><path fill="rgb(34,34,34)" stroke="rgb(34,34,34)" stroke-width="1" opacity="1" d="M 276.5 69 L 273.5 73 L 276.5 69 Z " /><path fill="rgb(34,34,34)" stroke="rgb(34,34,34)" stroke-width="1" opacity="1" d="M 183.5 74 L 184.5 76 L 183.5 74 Z " /><path fill="rgb(34,34,34)" stroke="rgb(34,34,34)" stroke-width="1" opacity="1" d="M 298.5 74 L 292.5 81 L 298.5 74 Z " /><path fill="rgb(34,34,34)" stroke="rgb(34,34,34)" stroke-width="1" opacity="1" d="M 156.5 80 L 161 80.5 L 156.5 81 L 156.5 80 Z " /><path fill="rgb(34,34,34)" stroke="rgb(34,34,34)" stroke-width="1" opacity="1" d="M 319.5 80 L 323 80.5 L 319.5 81 L 319.5 80 Z " /><path fill="rgb(34,34,34)" stroke="rgb(34,34,34)" stroke-width="1" opacity="1" d="M 146.5 83 L 145.5 85 L 146.5 83 Z " /><path fill="rgb(34,34,34)" stroke="rgb(34,34,34)" stroke-width="1" opacity="1" d="M 170.5 83 L 171.5 85 L 170.5 83 Z " /><path fill="rgb(34,34,34)" stroke="rgb(34,34,34)" stroke-width="1" opacity="1" d="M 106.5 84 L 107 98.5 L 106 98.5 L 106.5 84 Z " /><path fill="rgb(34,34,34)" stroke="rgb(34,34,34)" stroke-width="1" opacity="1" d="M 189.5 85 L 190 87.5 L 189 87.5 L 189.5 85 Z " /><path fill="rgb(34,34,34)" stroke="rgb(34,34,34)" stroke-width="1" opacity="1" d="M 259.5 85 L 249.5 96 L 259.5 85 Z " /><path fill="rgb(34,34,34)" stroke="rgb(34,34,34)" stroke-width="1" opacity="1" d="M 307.5 85 L 306.5 87 L 307.5 85 Z " /><path fill="rgb(34,34,34)" stroke="rgb(34,34,34)" stroke-width="1" opacity="1" d="M 124.5 90 L 125 92 L 140.5 92 L 141.5 91 L 140.5 93 L 125.5 93 L 124 91.5 L 124.5 90 Z " /><path fill="rgb(34,34,34)" stroke="rgb(34,34,34)" stroke-width="1" opacity="1" d="M 172.5 95 L 170.5 98 L 172.5 95 Z " /><path fill="rgb(34,34,34)" stroke="rgb(34,34,34)" stroke-width="1" opacity="1" d="M 128.5 108 L 126.5 111 L 128.5 108 Z " /><path fill="rgb(34,34,34)" stroke="rgb(34,34,34)" stroke-width="1" opacity="1" d="M 234.5 109 L 225.5 119 L 234.5 109 Z " /><path fill="rgb(34,34,34)" stroke="rgb(34,34,34)" stroke-width="1" opacity="1" d="M 142.5 115 L 141.5 117 L 142.5 115 Z " /><path fill="rgb(34,34,34)" stroke="rgb(34,34,34)" stroke-width="1" opacity="1" d="M 138.5 122 L 139 125.5 L 138 125.5 L 138.5 122 Z " /><path fill="rgb(34,34,34)" stroke="rgb(34,34,34)" stroke-width="1" opacity="1" d="M 337.5 126 L 332.5 132 L 337.5 126 Z " /><path fill="rgb(34,34,34)" stroke="rgb(34,34,34)" stroke-width="1" opacity="1" d="M 139.5 128 L 142.5 132 L 139.5 128 Z " /><path fill="rgb(34,34,34)" stroke="rgb(34,34,34)" stroke-width="1" opacity="1" d="M 190.5 132 L 191.5 134 L 190.5 132 Z " /><path fill="rgb(34,34,34)" stroke="rgb(34,34,34)" stroke-width="1" opacity="1" d="M 292.5 135 L 296.5 140 L 292.5 135 Z " /><path fill="rgb(34,34,34)" stroke="rgb(34,34,34)" stroke-width="1" opacity="1" d="M 349.5 135 L 344.5 141 L 349.5 135 Z " /><path fill="rgb(34,34,34)" stroke="rgb(34,34,34)" stroke-width="1" opacity="1" d="M 125.5 138 L 129.5 143 L 125.5 138 Z " /><path fill="rgb(34,34,34)" stroke="rgb(34,34,34)" stroke-width="1" opacity="1" d="M 171.5 140 L 170.5 142 L 171.5 140 Z " /><path fill="rgb(34,34,34)" stroke="rgb(34,34,34)" stroke-width="1" opacity="1" d="M 175.5 142 L 178.5 146 L 175.5 142 Z " /><path fill="rgb(34,34,34)" stroke="rgb(34,34,34)" stroke-width="1" opacity="1" d="M 142.5 147 L 145 147.5 L 142.5 148 L 142.5 147 Z " /><path fill="rgb(34,34,34)" stroke="rgb(34,34,34)" stroke-width="1" opacity="1" d="M 150.5 147 L 153 147.5 L 150.5 148 L 150.5 147 Z " /><path fill="rgb(34,34,34)" stroke="rgb(34,34,34)" stroke-width="1" opacity="1" d="M 183.5 147 L 186 147.5 L 183.5 148 L 183.5 147 Z " /><path fill="rgb(34,34,34)" stroke="rgb(34,34,34)" stroke-width="1" opacity="1" d="M 316.5 147 L 319 147.5 L 316.5 148 L 316.5 147 Z " /><path fill="rgb(34,34,34)" stroke="rgb(34,34,34)" stroke-width="1" opacity="1" d="M 324.5 147 L 328 147.5 L 324.5 148 L 324.5 147 Z " /><path fill="rgb(221,221,221)" stroke="rgb(221,221,221)" stroke-width="1" opacity="1" d="M 400.5 37 L 406 37.5 L 400.5 38 L 400.5 37 Z " /><path fill="rgb(221,221,221)" stroke="rgb(221,221,221)" stroke-width="1" opacity="1" d="M 411.5 37 L 417 37.5 L 411.5 38 L 411.5 37 Z " /><path fill="rgb(221,221,221)" stroke="rgb(221,221,221)" stroke-width="1" opacity="1" d="M 395.5 38 L 398 38.5 L 395.5 39 L 395.5 38 Z " /><path fill="rgb(221,221,221)" stroke="rgb(221,221,221)" stroke-width="1" opacity="1" d="M 432.5 42 L 433.5 44 L 432.5 42 Z " /><path fill="rgb(221,221,221)" stroke="rgb(221,221,221)" stroke-width="1" opacity="1" d="M 381.5 44 L 375.5 51 L 381.5 44 Z " /><path fill="rgb(221,221,221)" stroke="rgb(221,221,221)" stroke-width="1" opacity="1" d="M 470.5 46 L 471 68.5 L 470 68.5 L 470.5 46 Z " /><path fill="rgb(221,221,221)" stroke="rgb(221,221,221)" stroke-width="1" opacity="1" d="M 440.5 48 L 442.5 51 L 440.5 48 Z " /><path fill="rgb(221,221,221)" stroke="rgb(221,221,221)" stroke-width="1" opacity="1" d="M 443.5 52 L 444.5 54 L 443.5 52 Z " /><path fill="rgb(221,221,221)" stroke="rgb(221,221,221)" stroke-width="1" opacity="1" d="M 373.5 53 L 372.5 55 L 373.5 53 Z " /><path fill="rgb(221,221,221)" stroke="rgb(221,221,221)" stroke-width="1" opacity="1" d="M 401.5 53 L 405 53.5 L 401.5 54 L 401.5 53 Z " /><path fill="rgb(221,221,221)" stroke="rgb(221,221,221)" stroke-width="1" opacity="1" d="M 412.5 53 L 415 53.5 L 412.5 54 L 412.5 53 Z " /><path fill="rgb(221,221,221)" stroke="rgb(221,221,221)" stroke-width="1" opacity="1" d="M 395.5 55 L 394.5 57 L 395.5 55 Z " /><path fill="rgb(221,221,221)" stroke="rgb(221,221,221)" stroke-width="1" opacity="1" d="M 423.5 57 L 426.5 61 L 423.5 57 Z " /><path fill="rgb(221,221,221)" stroke="rgb(221,221,221)" stroke-width="1" opacity="1" d="M 369.5 64 L 370 72.5 L 369 72.5 L 369.5 64 Z " /><path fill="rgb(221,221,221)" stroke="rgb(221,221,221)" stroke-width="1" opacity="1" d="M 156.5 66 L 162 66.5 L 156.5 67 L 156.5 66 Z " /><path fill="rgb(221,221,221)" stroke="rgb(221,221,221)" stroke-width="1" opacity="1" d="M 317.5 66 L 324 66.5 L 317.5 67 L 317.5 66 Z " /><path fill="rgb(221,221,221)" stroke="rgb(221,221,221)" stroke-width="1" opacity="1" d="M 429.5 66 L 430 68.5 L 429 68.5 L 429.5 66 Z " /><path fill="rgb(221,221,221)" stroke="rgb(221,221,221)" stroke-width="1" opacity="1" d="M 641.5 66 L 644 66.5 L 641.5 67 L 641.5 66 Z " /><path fill="rgb(221,221,221)" stroke="rgb(221,221,221)" stroke-width="1" opacity="1" d="M 684.5 66 L 687 66.5 L 684.5 67 L 684.5 66 Z " /><path fill="rgb(221,221,221)" stroke="rgb(221,221,221)" stroke-width="1" opacity="1" d="M 540.5 67 L 543 67.5 L 540.5 68 L 540.5 67 Z " /><path fill="rgb(221,221,221)" stroke="rgb(221,221,221)" stroke-width="1" opacity="1" d="M 557.5 67 L 560 67.5 L 557.5 68 L 557.5 67 Z " /><path fill="rgb(221,221,221)" stroke="rgb(221,221,221)" stroke-width="1" opacity="1" d="M 676.5 67 L 679 67.5 L 676.5 68 L 676.5 67 Z " /><path fill="rgb(221,221,221)" stroke="rgb(221,221,221)" stroke-width="1" opacity="1" d="M 692.5 67 L 695 67.5 L 692.5 68 L 692.5 67 Z " /><path fill="rgb(221,221,221)" stroke="rgb(221,221,221)" stroke-width="1" opacity="1" d="M 255.5 68 L 277 68.5 L 255.5 69 L 238.5 86 L 255.5 68 Z " /><path fill="rgb(221,221,221)" stroke="rgb(221,221,221)" stroke-width="1" opacity="1" d="M 449.5 68 L 450 72 L 430 71.5 L 449 71 L 449.5 68 Z " /><path fill="rgb(221,221,221)" stroke="rgb(221,221,221)" stroke-width="1" opacity="1" d="M 457.5 69 L 458 81.5 L 457 81.5 L 457.5 69 Z " /><path fill="rgb(221,221,221)" stroke="rgb(221,221,221)" stroke-width="1" opacity="1" d="M 503.5 69 L 504 81.5 L 503 81.5 L 503.5 69 Z " /><path fill="rgb(221,221,221)" stroke="rgb(221,221,221)" stroke-width="1" opacity="1" d="M 533.5 69 L 535 69.5 L 532.5 71 L 533.5 69 Z " /><path fill="rgb(221,221,221)" stroke="rgb(221,221,221)" stroke-width="1" opacity="1" d="M 602.5 69 L 603 145.5 L 602 145.5 L 602.5 69 Z " /><path fill="rgb(221,221,221)" stroke="rgb(221,221,221)" stroke-width="1" opacity="1" d="M 702.5 70 L 703.5 72 L 702.5 70 Z " /><path fill="rgb(221,221,221)" stroke="rgb(221,221,221)" stroke-width="1" opacity="1" d="M 570.5 71 L 571.5 73 L 570.5 71 Z " /><path fill="rgb(221,221,221)" stroke="rgb(221,221,221)" stroke-width="1" opacity="1" d="M 627.5 71 L 626.5 73 L 627.5 71 Z " /><path fill="rgb(221,221,221)" stroke="rgb(221,221,221)" stroke-width="1" opacity="1" d="M 705.5 72 L 706.5 74 L 705.5 72 Z " /><path fill="rgb(221,221,221)" stroke="rgb(221,221,221)" stroke-width="1" opacity="1" d="M 526.5 73 L 524.5 76 L 526.5 73 Z " /><path fill="rgb(221,221,221)" stroke="rgb(221,221,221)" stroke-width="1" opacity="1" d="M 573.5 73 L 574.5 75 L 573.5 73 Z " /><path fill="rgb(221,221,221)" stroke="rgb(221,221,221)" stroke-width="1" opacity="1" d="M 297.5 74 L 292.5 80 L 297.5 74 Z " /><path fill="rgb(221,221,221)" stroke="rgb(221,221,221)" stroke-width="1" opacity="1" d="M 662.5 74 L 657.5 80 L 662.5 74 Z " /><path fill="rgb(221,221,221)" stroke="rgb(221,221,221)" stroke-width="1" opacity="1" d="M 708.5 74 L 711.5 78 L 708.5 74 Z " /><path fill="rgb(221,221,221)" stroke="rgb(221,221,221)" stroke-width="1" opacity="1" d="M 393.5 75 L 394.5 77 L 393.5 75 Z " /><path fill="rgb(221,221,221)" stroke="rgb(221,221,221)" stroke-width="1" opacity="1" d="M 622.5 76 L 621.5 78 L 622.5 76 Z " /><path fill="rgb(221,221,221)" stroke="rgb(221,221,221)" stroke-width="1" opacity="1" d="M 578.5 77 L 579.5 79 L 578.5 77 Z " /><path fill="rgb(221,221,221)" stroke="rgb(221,221,221)" stroke-width="1" opacity="1" d="M 128.5 78 L 127.5 80 L 128.5 78 Z " /><path fill="rgb(221,221,221)" stroke="rgb(221,221,221)" stroke-width="1" opacity="1" d="M 348.5 79 L 349.5 81 L 348.5 79 Z " /><path fill="rgb(221,221,221)" stroke="rgb(221,221,221)" stroke-width="1" opacity="1" d="M 520.5 79 L 518.5 82 L 520.5 79 Z " /><path fill="rgb(221,221,221)" stroke="rgb(221,221,221)" stroke-width="1" opacity="1" d="M 620.5 79 L 620 80.5 L 619.5 82 L 619 80.5 L 620.5 79 Z " /><path fill="rgb(221,221,221)" stroke="rgb(221,221,221)" stroke-width="1" opacity="1" d="M 581.5 81 L 582.5 83 L 581.5 81 Z " /><path fill="rgb(221,221,221)" stroke="rgb(221,221,221)" stroke-width="1" opacity="1" d="M 656.5 81 L 655.5 83 L 656.5 81 Z " /><path fill="rgb(221,221,221)" stroke="rgb(221,221,221)" stroke-width="1" opacity="1" d="M 714.5 81 L 715.5 83 L 714.5 81 Z " /><path fill="rgb(221,221,221)" stroke="rgb(221,221,221)" stroke-width="1" opacity="1" d="M 470.5 82 L 471 131.5 L 470 131.5 L 470.5 82 Z " /><path fill="rgb(221,221,221)" stroke="rgb(221,221,221)" stroke-width="1" opacity="1" d="M 262.5 83 L 254.5 92 L 262.5 83 Z " /><path fill="rgb(221,221,221)" stroke="rgb(221,221,221)" stroke-width="1" opacity="1" d="M 373.5 83 L 374.5 85 L 373.5 83 Z " /><path fill="rgb(221,221,221)" stroke="rgb(221,221,221)" stroke-width="1" opacity="1" d="M 517.5 83 L 516.5 85 L 517.5 83 Z " /><path fill="rgb(221,221,221)" stroke="rgb(221,221,221)" stroke-width="1" opacity="1" d="M 638.5 83 L 644 83.5 L 638.5 84 L 638.5 83 Z " /><path fill="rgb(221,221,221)" stroke="rgb(221,221,221)" stroke-width="1" opacity="1" d="M 170.5 84 L 171.5 86 L 170.5 84 Z " /><path fill="rgb(221,221,221)" stroke="rgb(221,221,221)" stroke-width="1" opacity="1" d="M 309.5 84 L 306.5 88 L 309.5 84 Z " /><path fill="rgb(221,221,221)" stroke="rgb(221,221,221)" stroke-width="1" opacity="1" d="M 538.5 84 L 534.5 89 L 538.5 84 Z " /><path fill="rgb(221,221,221)" stroke="rgb(221,221,221)" stroke-width="1" opacity="1" d="M 561.5 84 L 562.5 86 L 561.5 84 Z " /><path fill="rgb(221,221,221)" stroke="rgb(221,221,221)" stroke-width="1" opacity="1" d="M 696.5 84 L 699.5 88 L 696.5 84 Z " /><path fill="rgb(221,221,221)" stroke="rgb(221,221,221)" stroke-width="1" opacity="1" d="M 564.5 87 L 566.5 90 L 564.5 87 Z " /><path fill="rgb(221,221,221)" stroke="rgb(221,221,221)" stroke-width="1" opacity="1" d="M 190.5 89 L 191 130.5 L 190 130.5 L 190.5 89 Z " /><path fill="rgb(221,221,221)" stroke="rgb(221,221,221)" stroke-width="1" opacity="1" d="M 379.5 89 L 380.5 91 L 379.5 89 Z " /><path fill="rgb(221,221,221)" stroke="rgb(221,221,221)" stroke-width="1" opacity="1" d="M 625.5 91 L 624.5 93 L 625.5 91 Z " /><path fill="rgb(221,221,221)" stroke="rgb(221,221,221)" stroke-width="1" opacity="1" d="M 442.5 93 L 446.5 98 L 442.5 93 Z " /><path fill="rgb(221,221,221)" stroke="rgb(221,221,221)" stroke-width="1" opacity="1" d="M 721.5 96 L 722 98.5 L 721 98.5 L 721.5 96 Z " /><path fill="rgb(221,221,221)" stroke="rgb(221,221,221)" stroke-width="1" opacity="1" d="M 588.5 98 L 589 101.5 L 588 101.5 L 588.5 98 Z " /><path fill="rgb(221,221,221)" stroke="rgb(221,221,221)" stroke-width="1" opacity="1" d="M 511.5 99 L 512 104.5 L 511 104.5 L 511.5 99 Z " /><path fill="rgb(221,221,221)" stroke="rgb(221,221,221)" stroke-width="1" opacity="1" d="M 529.5 99 L 530 101.5 L 529 101.5 L 529.5 99 Z " /><path fill="rgb(221,221,221)" stroke="rgb(221,221,221)" stroke-width="1" opacity="1" d="M 648.5 100 L 649 106.5 L 648 106.5 L 648.5 100 Z " /><path fill="rgb(221,221,221)" stroke="rgb(221,221,221)" stroke-width="1" opacity="1" d="M 666.5 100 L 704 100.5 L 666.5 101 L 666.5 100 Z " /><path fill="rgb(221,221,221)" stroke="rgb(221,221,221)" stroke-width="1" opacity="1" d="M 722.5 102 L 723 106.5 L 722 106.5 L 722.5 102 Z " /><path fill="rgb(221,221,221)" stroke="rgb(221,221,221)" stroke-width="1" opacity="1" d="M 620.5 103 L 621 107.5 L 620 107.5 L 620.5 103 Z " /><path fill="rgb(221,221,221)" stroke="rgb(221,221,221)" stroke-width="1" opacity="1" d="M 571.5 104 L 572 110.5 L 571 110.5 L 571.5 104 Z " /><path fill="rgb(221,221,221)" stroke="rgb(221,221,221)" stroke-width="1" opacity="1" d="M 648.5 109 L 649 115.5 L 648 115.5 L 648.5 109 Z " /><path fill="rgb(221,221,221)" stroke="rgb(221,221,221)" stroke-width="1" opacity="1" d="M 234.5 110 L 231.5 114 L 234.5 110 Z " /><path fill="rgb(221,221,221)" stroke="rgb(221,221,221)" stroke-width="1" opacity="1" d="M 357.5 110 L 358 111.5 L 356.5 113 L 302 113 L 301.5 116 L 301 112 L 356.5 112 L 357.5 110 Z " /><path fill="rgb(221,221,221)" stroke="rgb(221,221,221)" stroke-width="1" opacity="1" d="M 365.5 110 L 366 115.5 L 365 115.5 L 365.5 110 Z " /><path fill="rgb(221,221,221)" stroke="rgb(221,221,221)" stroke-width="1" opacity="1" d="M 511.5 110 L 512 115.5 L 511 115.5 L 511.5 110 Z " /><path fill="rgb(221,221,221)" stroke="rgb(221,221,221)" stroke-width="1" opacity="1" d="M 283.5 111 L 284 113.5 L 283 113.5 L 283.5 111 Z " /><path fill="rgb(221,221,221)" stroke="rgb(221,221,221)" stroke-width="1" opacity="1" d="M 432.5 112 L 433 114.5 L 432 114.5 L 432.5 112 Z " /><path fill="rgb(221,221,221)" stroke="rgb(221,221,221)" stroke-width="1" opacity="1" d="M 452.5 113 L 453 117.5 L 452 117.5 L 452.5 113 Z " /><path fill="rgb(221,221,221)" stroke="rgb(221,221,221)" stroke-width="1" opacity="1" d="M 588.5 113 L 589 116.5 L 588 116.5 L 588.5 113 Z " /><path fill="rgb(221,221,221)" stroke="rgb(221,221,221)" stroke-width="1" opacity="1" d="M 570.5 114 L 571 116.5 L 570 116.5 L 570.5 114 Z " /><path fill="rgb(221,221,221)" stroke="rgb(221,221,221)" stroke-width="1" opacity="1" d="M 142.5 116 L 141.5 118 L 142.5 116 Z " /><path fill="rgb(221,221,221)" stroke="rgb(221,221,221)" stroke-width="1" opacity="1" d="M 704.5 121 L 721 121.5 L 704.5 122 L 704.5 121 Z " /><path fill="rgb(221,221,221)" stroke="rgb(221,221,221)" stroke-width="1" opacity="1" d="M 388.5 123 L 392.5 128 L 388.5 123 Z " /><path fill="rgb(221,221,221)" stroke="rgb(221,221,221)" stroke-width="1" opacity="1" d="M 566.5 125 L 561.5 131 L 566.5 125 Z " /><path fill="rgb(221,221,221)" stroke="rgb(221,221,221)" stroke-width="1" opacity="1" d="M 669.5 125 L 670.5 127 L 669.5 125 Z " /><path fill="rgb(221,221,221)" stroke="rgb(221,221,221)" stroke-width="1" opacity="1" d="M 429.5 126 L 428.5 128 L 429.5 126 Z " /><path fill="rgb(221,221,221)" stroke="rgb(221,221,221)" stroke-width="1" opacity="1" d="M 306.5 127 L 308.5 130 L 306.5 127 Z " /><path fill="rgb(221,221,221)" stroke="rgb(221,221,221)" stroke-width="1" opacity="1" d="M 535.5 127 L 537.5 130 L 535.5 127 Z " /><path fill="rgb(221,221,221)" stroke="rgb(221,221,221)" stroke-width="1" opacity="1" d="M 394.5 128 L 395.5 130 L 394.5 128 Z " /><path fill="rgb(221,221,221)" stroke="rgb(221,221,221)" stroke-width="1" opacity="1" d="M 426.5 128 L 425.5 130 L 426.5 128 Z " /><path fill="rgb(221,221,221)" stroke="rgb(221,221,221)" stroke-width="1" opacity="1" d="M 516.5 129 L 518 131.5 L 516 130.5 L 516.5 129 Z " /><path fill="rgb(221,221,221)" stroke="rgb(221,221,221)" stroke-width="1" opacity="1" d="M 489.5 130 L 490.5 132 L 489.5 130 Z " /><path fill="rgb(221,221,221)" stroke="rgb(221,221,221)" stroke-width="1" opacity="1" d="M 405.5 132 L 417 132.5 L 405.5 133 L 405.5 132 Z " /><path fill="rgb(221,221,221)" stroke="rgb(221,221,221)" stroke-width="1" opacity="1" d="M 447.5 132 L 446.5 134 L 447.5 132 Z " /><path fill="rgb(221,221,221)" stroke="rgb(221,221,221)" stroke-width="1" opacity="1" d="M 492.5 132 L 502 132.5 L 492.5 133 L 492.5 132 Z " /><path fill="rgb(221,221,221)" stroke="rgb(221,221,221)" stroke-width="1" opacity="1" d="M 654.5 132 L 655.5 134 L 654.5 132 Z " /><path fill="rgb(221,221,221)" stroke="rgb(221,221,221)" stroke-width="1" opacity="1" d="M 197.5 133 L 199 134.5 L 199 145.5 L 198 145.5 L 198 134.5 L 197.5 133 Z " /><path fill="rgb(221,221,221)" stroke="rgb(221,221,221)" stroke-width="1" opacity="1" d="M 503.5 133 L 504 145.5 L 503 145.5 L 503.5 133 Z " /><path fill="rgb(221,221,221)" stroke="rgb(221,221,221)" stroke-width="1" opacity="1" d="M 545.5 133 L 548 133.5 L 545.5 134 L 545.5 133 Z " /><path fill="rgb(221,221,221)" stroke="rgb(221,221,221)" stroke-width="1" opacity="1" d="M 553.5 133 L 556 133.5 L 553.5 134 L 553.5 133 Z " /><path fill="rgb(221,221,221)" stroke="rgb(221,221,221)" stroke-width="1" opacity="1" d="M 581.5 133 L 580.5 135 L 581.5 133 Z " /><path fill="rgb(221,221,221)" stroke="rgb(221,221,221)" stroke-width="1" opacity="1" d="M 680.5 133 L 683 133.5 L 680.5 134 L 680.5 133 Z " /><path fill="rgb(221,221,221)" stroke="rgb(221,221,221)" stroke-width="1" opacity="1" d="M 688.5 133 L 692 133.5 L 688.5 134 L 688.5 133 Z " /><path fill="rgb(221,221,221)" stroke="rgb(221,221,221)" stroke-width="1" opacity="1" d="M 373.5 134 L 378.5 140 L 373.5 134 Z " /><path fill="rgb(221,221,221)" stroke="rgb(221,221,221)" stroke-width="1" opacity="1" d="M 519.5 134 L 520.5 136 L 519.5 134 Z " /><path fill="rgb(221,221,221)" stroke="rgb(221,221,221)" stroke-width="1" opacity="1" d="M 715.5 134 L 714.5 136 L 715.5 134 Z " /><path fill="rgb(221,221,221)" stroke="rgb(221,221,221)" stroke-width="1" opacity="1" d="M 292.5 136 L 294.5 139 L 292.5 136 Z " /><path fill="rgb(221,221,221)" stroke="rgb(221,221,221)" stroke-width="1" opacity="1" d="M 657.5 136 L 659.5 139 L 657.5 136 Z " /><path fill="rgb(221,221,221)" stroke="rgb(221,221,221)" stroke-width="1" opacity="1" d="M 348.5 137 L 346.5 140 L 348.5 137 Z " /><path fill="rgb(221,221,221)" stroke="rgb(221,221,221)" stroke-width="1" opacity="1" d="M 523.5 138 L 526.5 142 L 523.5 138 Z " /><path fill="rgb(221,221,221)" stroke="rgb(221,221,221)" stroke-width="1" opacity="1" d="M 125.5 139 L 128.5 143 L 125.5 139 Z " /><path fill="rgb(221,221,221)" stroke="rgb(221,221,221)" stroke-width="1" opacity="1" d="M 440.5 139 L 439.5 141 L 440.5 139 Z " /><path fill="rgb(221,221,221)" stroke="rgb(221,221,221)" stroke-width="1" opacity="1" d="M 575.5 139 L 573.5 142 L 575.5 139 Z " /><path fill="rgb(221,221,221)" stroke="rgb(221,221,221)" stroke-width="1" opacity="1" d="M 710.5 139 L 708.5 142 L 710.5 139 Z " /><path fill="rgb(221,221,221)" stroke="rgb(221,221,221)" stroke-width="1" opacity="1" d="M 380.5 140 L 381.5 142 L 380.5 140 Z " /><path fill="rgb(221,221,221)" stroke="rgb(221,221,221)" stroke-width="1" opacity="1" d="M 473.5 140 L 476.5 144 L 473.5 140 Z " /><path fill="rgb(221,221,221)" stroke="rgb(221,221,221)" stroke-width="1" opacity="1" d="M 663.5 141 L 664.5 143 L 663.5 141 Z " /><path fill="rgb(221,221,221)" stroke="rgb(221,221,221)" stroke-width="1" opacity="1" d="M 706.5 142 L 705.5 144 L 706.5 142 Z " /><path fill="rgb(221,221,221)" stroke="rgb(221,221,221)" stroke-width="1" opacity="1" d="M 175.5 143 L 178.5 147 L 175.5 143 Z " /><path fill="rgb(221,221,221)" stroke="rgb(221,221,221)" stroke-width="1" opacity="1" d="M 484.5 146 L 490 146.5 L 484.5 147 L 484.5 146 Z " /><path fill="rgb(221,221,221)" stroke="rgb(221,221,221)" stroke-width="1" opacity="1" d="M 494.5 146 L 500 146.5 L 494.5 147 L 494.5 146 Z " /><path fill="rgb(221,221,221)" stroke="rgb(221,221,221)" stroke-width="1" opacity="1" d="M 420.5 147 L 423 147.5 L 420.5 148 L 420.5 147 Z " /><path fill="rgb(221,221,221)" stroke="rgb(221,221,221)" stroke-width="1" opacity="1" d="M 541.5 147 L 545 147.5 L 541.5 148 L 541.5 147 Z " /><path fill="rgb(221,221,221)" stroke="rgb(221,221,221)" stroke-width="1" opacity="1" d="M 555.5 147 L 560 147.5 L 555.5 148 L 555.5 147 Z " /><path fill="rgb(221,221,221)" stroke="rgb(221,221,221)" stroke-width="1" opacity="1" d="M 677.5 147 L 681 147.5 L 677.5 148 L 677.5 147 Z " /><path fill="rgb(221,221,221)" stroke="rgb(221,221,221)" stroke-width="1" opacity="1" d="M 692.5 147 L 695 147.5 L 692.5 148 L 692.5 147 Z " /><path fill="rgb(221,221,221)" stroke="rgb(221,221,221)" stroke-width="1" opacity="1" d="M 404.5 148 L 416 148.5 L 404.5 149 L 404.5 148 Z " /></svg>